<svg xmlns="http://www.w3.org/2000/svg" width="720" height="334" viewBox="0 0 720 334" role="img" aria-label="Most used languages">
<style>
  .bg { fill:#fff; stroke:#d0d7de } .title,.label { fill:#24292f } .value { fill:#57606a }
  .track { fill:#eaeef2 } .bar { fill:#24292f } text { font-family:-apple-system,BlinkMacSystemFont,"Segoe UI",sans-serif }
  .title { font-size:15px;font-weight:600 } .label,.value { font-size:12px }
  @media (prefers-color-scheme:dark) { .bg { fill:#0d1117;stroke:#30363d } .title,.label { fill:#f0f6fc } .value { fill:#8b949e } .track { fill:#21262d } .bar { fill:#f0f6fc } }
</style>
<rect class="bg" x=".5" y=".5" width="719" height="333" rx="8"/>
<text class="title" x="18" y="27">LANGUAGE DISTRIBUTION</text>
<text class="label" x="18" y="60">Jupyter Notebook</text><rect class="track" x="180" y="48" width="430" height="12" rx="6"/><rect class="bar" x="180" y="48" width="191" height="12" rx="6"/><text class="value" x="700" y="59" text-anchor="end">44.4%</text><text class="label" x="18" y="88">Python</text><rect class="track" x="180" y="76" width="430" height="12" rx="6"/><rect class="bar" x="180" y="76" width="108" height="12" rx="6"/><text class="value" x="700" y="87" text-anchor="end">25.0%</text><text class="label" x="18" y="116">TypeScript</text><rect class="track" x="180" y="104" width="430" height="12" rx="6"/><rect class="bar" x="180" y="104" width="52" height="12" rx="6"/><text class="value" x="700" y="115" text-anchor="end">12.0%</text><text class="label" x="18" y="144">JavaScript</text><rect class="track" x="180" y="132" width="430" height="12" rx="6"/><rect class="bar" x="180" y="132" width="28" height="12" rx="6"/><text class="value" x="700" y="143" text-anchor="end">6.5%</text><text class="label" x="18" y="172">Java</text><rect class="track" x="180" y="160" width="430" height="12" rx="6"/><rect class="bar" x="180" y="160" width="21" height="12" rx="6"/><text class="value" x="700" y="171" text-anchor="end">5.0%</text><text class="label" x="18" y="200">SCSS</text><rect class="track" x="180" y="188" width="430" height="12" rx="6"/><rect class="bar" x="180" y="188" width="19" height="12" rx="6"/><text class="value" x="700" y="199" text-anchor="end">4.4%</text><text class="label" x="18" y="228">HTML</text><rect class="track" x="180" y="216" width="430" height="12" rx="6"/><rect class="bar" x="180" y="216" width="7" height="12" rx="6"/><text class="value" x="700" y="227" text-anchor="end">1.7%</text><text class="label" x="18" y="256">Shell</text><rect class="track" x="180" y="244" width="430" height="12" rx="6"/><rect class="bar" x="180" y="244" width="2" height="12" rx="6"/><text class="value" x="700" y="255" text-anchor="end">0.4%</text><text class="label" x="18" y="284">CSS</text><rect class="track" x="180" y="272" width="430" height="12" rx="6"/><rect class="bar" x="180" y="272" width="2" height="12" rx="6"/><text class="value" x="700" y="283" text-anchor="end">0.4%</text><text class="label" x="18" y="312">Dockerfile</text><rect class="track" x="180" y="300" width="430" height="12" rx="6"/><rect class="bar" x="180" y="300" width="2" height="12" rx="6"/><text class="value" x="700" y="311" text-anchor="end">0.1%</text>
</svg>