<svg xmlns="http://www.w3.org/2000/svg" width="720" height="214" viewBox="0 0 720 214" role="img" aria-label="GitHub overview and monthly contributions">
<style>
  .bg { fill:#fff;stroke:#d0d7de } .metric,.title { fill:#24292f } .caption,.month { fill:#57606a } .axis { stroke:#d0d7de } .monthbar { fill:#24292f }
  text { font-family:-apple-system,BlinkMacSystemFont,"Segoe UI",sans-serif } .metric { font-size:18px;font-weight:650 } .caption,.month { font-size:9px } .title { font-size:12px;font-weight:600 }
  @media (prefers-color-scheme:dark) { .bg { fill:#0d1117;stroke:#30363d } .metric,.title { fill:#f0f6fc } .caption,.month { fill:#8b949e } .axis { stroke:#30363d } .monthbar { fill:#f0f6fc } }
</style>
<rect class="bg" x=".5" y=".5" width="719" height="213" rx="8"/>
<text class="metric" x="36" y="36">444</text><text class="caption" x="36" y="54">COMMITS THIS YEAR</text><text class="metric" x="206" y="36">51d</text><text class="caption" x="206" y="54">CURRENT STREAK</text><text class="metric" x="376" y="36">51d</text><text class="caption" x="376" y="54">LONGEST STREAK</text><text class="metric" x="546" y="36">42</text><text class="caption" x="546" y="54">REPOSITORIES</text>
<text class="title" x="18" y="78">ACTIVITY · LAST 12 MONTHS</text>
<line class="axis" x1="18" y1="174.5" x2="702" y2="174.5"/>
<rect class="monthbar" x="25" y="172" width="32" height="2" rx="4"><title>2025-09: 0 contributions</title></rect><text class="month" x="41" y="193" text-anchor="middle">09</text><rect class="monthbar" x="81" y="172" width="32" height="2" rx="4"><title>2025-10: 1 contributions</title></rect><text class="month" x="97" y="193" text-anchor="middle">10</text><rect class="monthbar" x="137" y="172" width="32" height="2" rx="4"><title>2025-11: 0 contributions</title></rect><text class="month" x="153" y="193" text-anchor="middle">11</text><rect class="monthbar" x="193" y="160" width="32" height="14" rx="4"><title>2025-12: 24 contributions</title></rect><text class="month" x="209" y="193" text-anchor="middle">12</text><rect class="monthbar" x="249" y="149" width="32" height="25" rx="4"><title>2026-01: 44 contributions</title></rect><text class="month" x="265" y="193" text-anchor="middle">01</text><rect class="monthbar" x="305" y="172" width="32" height="2" rx="4"><title>2026-02: 0 contributions</title></rect><text class="month" x="321" y="193" text-anchor="middle">02</text><rect class="monthbar" x="361" y="172" width="32" height="2" rx="4"><title>2026-03: 4 contributions</title></rect><text class="month" x="377" y="193" text-anchor="middle">03</text><rect class="monthbar" x="417" y="127" width="32" height="47" rx="4"><title>2026-04: 84 contributions</title></rect><text class="month" x="433" y="193" text-anchor="middle">04</text><rect class="monthbar" x="473" y="164" width="32" height="10" rx="4"><title>2026-05: 17 contributions</title></rect><text class="month" x="489" y="193" text-anchor="middle">05</text><rect class="monthbar" x="529" y="150" width="32" height="24" rx="4"><title>2026-06: 43 contributions</title></rect><text class="month" x="545" y="193" text-anchor="middle">06</text><rect class="monthbar" x="585" y="82" width="32" height="92" rx="4"><title>2026-07: 163 contributions</title></rect><text class="month" x="601" y="193" text-anchor="middle">07</text><rect class="monthbar" x="641" y="96" width="32" height="78" rx="4"><title>2026-08: 139 contributions</title></rect><text class="month" x="657" y="193" text-anchor="middle">08</text>
</svg>